<?xml version="1.0" encoding="utf-8"?>
<!-- Generator: Adobe Illustrator 25.2.0, SVG Export Plug-In . SVG Version: 6.00 Build 0)  -->
<svg version="1.1" id="Layer_1" xmlns="http://www.w3.org/2000/svg" xmlns:xlink="http://www.w3.org/1999/xlink" x="0px" y="0px"
	 viewBox="0 0 1200 389.2" style="enable-background:new 0 0 1200 389.2;" xml:space="preserve">
<style type="text/css">
	.st0{fill:#3A3A3A;}
	.st1{fill:#EF4136;}
</style>
<g>
	<g>
		<g>
			<path class="st0" d="M646.28,87.6h18.26c8.47,0,14.6,1.24,18.37,3.7s5.66,6.37,5.66,11.7c0,3.59-0.93,6.58-2.78,8.96
				c-1.85,2.38-4.52,3.89-8,4.5v0.42c4.32,0.81,7.5,2.42,9.53,4.82c2.03,2.4,3.05,5.65,3.05,9.74c0,5.53-1.93,9.86-5.79,12.98
				c-3.86,3.13-9.22,4.69-16.1,4.69h-22.22V87.6z M656.34,113.02h9.68c4.21,0,7.28-0.67,9.22-2c1.94-1.33,2.9-3.6,2.9-6.8
				c0-2.89-1.05-4.98-3.14-6.27c-2.09-1.29-5.41-1.94-9.95-1.94h-8.71V113.02z M656.34,121.19v19.48h10.69
				c4.21,0,7.39-0.8,9.53-2.42c2.15-1.61,3.22-4.16,3.22-7.64c0-3.2-1.09-5.57-3.28-7.11c-2.19-1.54-5.51-2.31-9.97-2.31H656.34z"/>
			<path class="st0" d="M768.64,87.6v39.81c0,4.54-0.98,8.52-2.93,11.93s-4.77,6.03-8.46,7.87c-3.69,1.84-8.1,2.76-13.24,2.76
				c-7.63,0-13.57-2.02-17.8-6.06s-6.35-9.6-6.35-16.66V87.6h10.1v38.93c0,5.08,1.18,8.82,3.54,11.24
				c2.36,2.41,5.98,3.62,10.86,3.62c9.48,0,14.22-4.98,14.22-14.94V87.6H768.64z"/>
			<path class="st0" d="M801.62,149.13V87.6h10.06v61.53H801.62z"/>
			<path class="st0" d="M845.15,149.13V87.6h10.06v52.9h26.05v8.63H845.15z"/>
			<path class="st0" d="M959.14,117.78c0,10.15-2.82,17.92-8.46,23.29c-5.64,5.37-13.76,8.06-24.36,8.06H909.1V87.6h19.02
				c9.79,0,17.41,2.64,22.85,7.91C956.42,100.79,959.14,108.21,959.14,117.78z M948.54,118.11c0-14.73-6.89-22.09-20.67-22.09h-8.71
				v44.65h7.15C941.13,140.67,948.54,133.15,948.54,118.11z"/>
		</g>
	</g>
	<g>
		<g>
			<path class="st0" d="M694.8,221.11h-10.1v-27.73h-28.36v27.73h-10.06v-61.53h10.06v25.16h28.36v-25.16h10.1V221.11z"/>
			<path class="st0" d="M776.47,159.59v39.81c0,4.54-0.98,8.52-2.93,11.93c-1.95,3.41-4.77,6.03-8.46,7.87
				c-3.69,1.84-8.1,2.76-13.24,2.76c-7.63,0-13.57-2.02-17.8-6.06s-6.35-9.6-6.35-16.66v-39.64h10.1v38.93
				c0,5.08,1.18,8.82,3.54,11.24c2.36,2.41,5.98,3.62,10.86,3.62c9.48,0,14.22-4.98,14.22-14.94v-38.84H776.47z"/>
			<path class="st0" d="M809.44,159.59h18.26c8.47,0,14.6,1.24,18.37,3.7s5.66,6.37,5.66,11.7c0,3.59-0.93,6.58-2.78,8.96
				c-1.85,2.38-4.52,3.89-8,4.5v0.42c4.32,0.81,7.5,2.42,9.53,4.82c2.03,2.4,3.05,5.65,3.05,9.74c0,5.53-1.93,9.86-5.79,12.98
				c-3.86,3.13-9.22,4.69-16.1,4.69h-22.22V159.59z M819.5,185.01h9.68c4.21,0,7.28-0.67,9.22-2c1.94-1.33,2.9-3.6,2.9-6.8
				c0-2.89-1.05-4.98-3.14-6.27c-2.09-1.29-5.41-1.94-9.95-1.94h-8.71V185.01z M819.5,193.17v19.48h10.69c4.21,0,7.39-0.8,9.53-2.42
				c2.15-1.61,3.22-4.16,3.22-7.64c0-3.2-1.09-5.57-3.28-7.11c-2.19-1.54-5.51-2.31-9.97-2.31H819.5z"/>
		</g>
	</g>
	<g>
		<g>
			<path class="st0" d="M687.01,250.61c0,6.42-2.1,11.35-6.31,14.77c-4.21,3.42-10.2,5.13-17.97,5.13h-6.4v23.02h-10.06v-61.53
				h17.72c7.69,0,13.45,1.57,17.28,4.71C685.1,239.87,687.01,244.5,687.01,250.61z M656.34,262.06h5.34c5.16,0,8.95-0.9,11.36-2.69
				c2.41-1.79,3.62-4.6,3.62-8.42c0-3.54-1.08-6.17-3.24-7.91c-2.16-1.74-5.53-2.61-10.1-2.61h-6.99V262.06z"/>
			<path class="st0" d="M754.71,293.54l-6.14-17.09h-23.52l-6.02,17.09h-10.6l23.02-61.78h10.94l23.02,61.78H754.71z M745.91,267.79
				l-5.76-16.75c-0.42-1.12-1-2.89-1.75-5.3c-0.74-2.41-1.26-4.18-1.54-5.3c-0.76,3.45-1.87,7.22-3.32,11.32l-5.56,16.03H745.91z"/>
			<path class="st0" d="M837.72,293.54h-11.66l-19.32-27.86l-5.93,4.84v23.02h-10.06v-61.53h10.06v29.37
				c2.75-3.37,5.48-6.61,8.21-9.72l16.62-19.65h11.45c-10.75,12.63-18.45,21.62-23.1,26.97L837.72,293.54z"/>
			<path class="st0" d="M863.08,293.54v-61.53h10.06v61.53H863.08z"/>
			<path class="st0" d="M942.1,276.83c0,5.47-1.98,9.76-5.93,12.88c-3.96,3.12-9.41,4.67-16.37,4.67c-6.96,0-12.65-1.08-17.09-3.24
				v-9.51c2.8,1.32,5.79,2.36,8.94,3.11c3.16,0.76,6.1,1.14,8.82,1.14c3.98,0,6.92-0.76,8.82-2.27c1.89-1.51,2.84-3.55,2.84-6.1
				c0-2.3-0.87-4.25-2.61-5.85c-1.74-1.6-5.33-3.49-10.77-5.68c-5.61-2.27-9.57-4.87-11.87-7.79c-2.3-2.92-3.45-6.43-3.45-10.52
				c0-5.13,1.82-9.18,5.47-12.12c3.65-2.94,8.54-4.42,14.69-4.42c5.89,0,11.75,1.29,17.59,3.87l-3.2,8.21
				c-5.47-2.3-10.35-3.45-14.65-3.45c-3.25,0-5.72,0.71-7.41,2.13c-1.68,1.42-2.52,3.29-2.52,5.62c0,1.6,0.34,2.97,1.01,4.1
				s1.78,2.21,3.32,3.22c1.54,1.01,4.32,2.34,8.33,4c4.52,1.88,7.83,3.63,9.93,5.26c2.1,1.63,3.65,3.46,4.63,5.51
				C941.61,271.64,942.1,274.05,942.1,276.83z"/>
			<path class="st0" d="M992.5,293.54h-10.06v-52.9h-18.1v-8.63h46.25v8.63h-18.1V293.54z"/>
			<path class="st0" d="M1075.43,293.54l-6.14-17.09h-23.52l-6.02,17.09h-10.6l23.02-61.78h10.94l23.02,61.78H1075.43z
				 M1066.63,267.79l-5.77-16.75c-0.42-1.12-1-2.89-1.75-5.3c-0.74-2.41-1.26-4.18-1.54-5.3c-0.76,3.45-1.87,7.22-3.32,11.32
				l-5.55,16.03H1066.63z"/>
			<path class="st0" d="M1162.73,293.54h-12.33l-30.26-49.03h-0.34l0.21,2.74c0.39,5.22,0.59,9.99,0.59,14.31v31.98h-9.13v-61.53
				h12.21l30.17,48.77h0.25c-0.06-0.64-0.17-2.99-0.34-7.05c-0.17-4.05-0.25-7.22-0.25-9.49v-32.24h9.22V293.54z"/>
		</g>
	</g>
	<g>
		<path class="st1" d="M233.42,291.16c-1.85,1.95-3.75,3.79-5.67,5.59v15.44h29.38V256.1C251.5,268.71,243.6,280.42,233.42,291.16z"
			/>
		<path class="st1" d="M409.33,291.16c1.85,1.95,3.75,3.79,5.67,5.59v62.24h-29.38V256.1C391.25,268.71,399.15,280.42,409.33,291.16
			z"/>
		<path class="st1" d="M241.25,130.46c4.96-5.97,10.06-10.96,14.76-15.02V30.54h-28.64v84.66c0.98,0.94,1.96,1.86,2.92,2.84
			C234.29,122.03,237.91,126.19,241.25,130.46z"/>
		<path class="st1" d="M256.15,128.04c-5.7,6.28-10.28,12.71-13.98,19.02c-0.53,0.96-1.06,1.95-1.59,2.98
			c-0.01-0.02-0.03-0.05-0.04-0.07c-14.7,26.92-13.6,50.93-13.66,50.9c0.05,1.02,0.1,2.04,0.12,3.07
			c0.37,22.69-7.07,42.03-22.32,58.77c-15.25,16.74-33.48,25.29-55.42,26.41c-23.06,1.12-42.77-7.07-59.51-24.17
			c-16.74-17.48-24.55-37.94-23.8-61.37c0.37-22.32,8.56-41.29,23.8-57.28c15.25-15.99,33.85-23.8,55.42-23.8
			c22.69,0,41.66,8.19,57.28,24.18c7.58,7.58,13.39,15.85,17.46,24.81c3.29-11.91,8.42-22.2,14.27-30.93
			c-3.57-4.81-7.54-9.48-12.02-13.96c-21.94-22.32-48.35-32.73-78.85-31.62c-31.24,1.12-57.28,13.39-78.11,37.57V30.96H37.3v173.37
			v1.49c-0.74,30.5,10.04,56.91,32.73,79.22c22.69,22.32,49.1,33.1,79.59,31.99c29.38-1.12,54.68-12.27,75.13-33.85
			c20.46-21.57,30.87-47.24,30.87-76.99c0-0.93-0.04-1.84-0.06-2.76c0.43-12.65,3.25-45.73,20.61-62.52
			c0.88-0.82,1.78-1.61,2.69-2.38c1.05-0.84,2.14-1.65,3.29-2.38l0.01-0.17c10.91-7.96,23.73-12.06,38.32-12.37
			c17.48-0.37,33.1,5.95,46.12,18.97c13.02,13.02,19.71,28.27,19.71,46.12c0,6.18,0,12.35,0,18.53c0,10.33-0.47,20.98,1.76,31.14
			c2.65,12.05,9.09,21.79,16.61,31.34c5.23,6.64,11.39,13.4,18.21,18.96c15.24,12.42,30.38,22.64,50.02,26.7
			c20.88,4.31,43.79,2.47,63.82-4.86c13.76-5.04,24.63-14.52,34.84-24.72c21.94-22.32,33.1-49.1,33.1-79.97
			c0-29.76-10.41-55.42-30.87-76.99c-20.46-21.57-45.38-32.73-74.76-33.47c-30.5-1.12-56.91,9.67-79.22,31.99
			c-3.85,3.85-7.35,7.85-10.54,11.97c6.13,10.53,10.21,22,12.19,34.33c3.95-9.35,9.69-18.08,17.32-26.22
			c16.74-17.48,36.45-25.29,59.88-24.18c21.94,0.74,40.17,9.67,55.42,26.41c15.25,16.74,22.69,36.08,22.32,58.4
			c-0.37,22.69-8.56,41.66-24.55,57.65c-15.99,15.99-34.96,23.8-57.28,23.8c-20.65,0-39.86-7.77-54.45-22.43
			c-8.88-8.92-17.43-18.95-22.1-30.78c-3.8-9.62-3.43-19.2-3.43-29.31c0-2.29,0-4.59,0-6.88c0-2.81,0-5.61,0-8.42
			c0-27.15-9.67-50.21-28.64-68.81c-18.97-18.6-41.28-27.15-67.69-26.04c-23.9,1.05-45.02,10.6-60.64,29.59"/>
	</g>
</g>
</svg>
